<mxfile host="app.diagrams.net" agent="Mozilla/5.0 (Windows NT 10.0; Win64; x64; rv:130.0) Gecko/20100101 Firefox/130.0" version="24.7.12">
  <diagram name="Página-1" id="rctPrz6m6ZB6kbISsElE">
    <mxGraphModel dx="2284" dy="774" grid="1" gridSize="10" guides="1" tooltips="1" connect="1" arrows="1" fold="1" page="1" pageScale="1" pageWidth="850" pageHeight="1100" math="0" shadow="0">
      <root>
        <mxCell id="0" />
        <mxCell id="1" parent="0" />
        <mxCell id="eJNdkGEpaUKo2zQjEefQ-1" value="&lt;div&gt;Dogify&lt;/div&gt;" style="rounded=0;whiteSpace=wrap;html=1;" vertex="1" parent="1">
          <mxGeometry x="1176" y="30" width="130" height="40" as="geometry" />
        </mxCell>
        <mxCell id="eJNdkGEpaUKo2zQjEefQ-2" value="1. Planificación del proyecto - Arquitectura" style="rounded=0;whiteSpace=wrap;html=1;" vertex="1" parent="1">
          <mxGeometry x="110" y="180" width="130" height="30" as="geometry" />
        </mxCell>
        <mxCell id="eJNdkGEpaUKo2zQjEefQ-3" value="1.1 Relevamiento de Requerimientos" style="rounded=0;whiteSpace=wrap;html=1;" vertex="1" parent="1">
          <mxGeometry x="-10" y="275" width="120" height="30" as="geometry" />
        </mxCell>
        <mxCell id="eJNdkGEpaUKo2zQjEefQ-4" value="1.1.3 Requerimientos Funcionales" style="rounded=0;whiteSpace=wrap;html=1;" vertex="1" parent="1">
          <mxGeometry x="10" y="435" width="100" height="50" as="geometry" />
        </mxCell>
        <mxCell id="eJNdkGEpaUKo2zQjEefQ-5" value="1.1.4 Requerimientos No Funcionales" style="rounded=0;whiteSpace=wrap;html=1;" vertex="1" parent="1">
          <mxGeometry x="10" y="495" width="100" height="50" as="geometry" />
        </mxCell>
        <mxCell id="eJNdkGEpaUKo2zQjEefQ-6" value="&lt;div&gt;1.1.1&lt;/div&gt;&lt;div&gt;Entrevistas con el&lt;/div&gt;&lt;div&gt;Cliente&lt;br&gt;&lt;/div&gt;" style="rounded=0;whiteSpace=wrap;html=1;" vertex="1" parent="1">
          <mxGeometry x="10" y="315" width="100" height="50" as="geometry" />
        </mxCell>
        <mxCell id="eJNdkGEpaUKo2zQjEefQ-7" value="1.2 Diseño de la Arquitectura" style="rounded=0;whiteSpace=wrap;html=1;" vertex="1" parent="1">
          <mxGeometry x="130" y="275" width="120" height="30" as="geometry" />
        </mxCell>
        <mxCell id="eJNdkGEpaUKo2zQjEefQ-8" value="1.2.1 Diseño de Interfaz" style="rounded=0;whiteSpace=wrap;html=1;" vertex="1" parent="1">
          <mxGeometry x="150" y="315" width="100" height="50" as="geometry" />
        </mxCell>
        <mxCell id="eJNdkGEpaUKo2zQjEefQ-9" value="1.2.3 Selección de Tecnologias" style="rounded=0;whiteSpace=wrap;html=1;" vertex="1" parent="1">
          <mxGeometry x="150" y="455" width="100" height="50" as="geometry" />
        </mxCell>
        <mxCell id="eJNdkGEpaUKo2zQjEefQ-10" value="1.2.2 Diseño de Implementación y funcionalidad" style="rounded=0;whiteSpace=wrap;html=1;" vertex="1" parent="1">
          <mxGeometry x="150" y="385" width="100" height="50" as="geometry" />
        </mxCell>
        <mxCell id="eJNdkGEpaUKo2zQjEefQ-11" value="1.3 Planificación" style="rounded=0;whiteSpace=wrap;html=1;" vertex="1" parent="1">
          <mxGeometry x="274" y="275" width="120" height="30" as="geometry" />
        </mxCell>
        <mxCell id="eJNdkGEpaUKo2zQjEefQ-12" value="1.3.1 Selección de metodologia" style="rounded=0;whiteSpace=wrap;html=1;" vertex="1" parent="1">
          <mxGeometry x="300" y="315" width="100" height="50" as="geometry" />
        </mxCell>
        <mxCell id="eJNdkGEpaUKo2zQjEefQ-13" value="1.3.2 Planificación de tiempos de entrega" style="rounded=0;whiteSpace=wrap;html=1;" vertex="1" parent="1">
          <mxGeometry x="300" y="385" width="106" height="50" as="geometry" />
        </mxCell>
        <mxCell id="eJNdkGEpaUKo2zQjEefQ-14" value="1.3.3 Asignación de equipos y responsabilidades" style="rounded=0;whiteSpace=wrap;html=1;" vertex="1" parent="1">
          <mxGeometry x="300" y="455" width="106" height="50" as="geometry" />
        </mxCell>
        <mxCell id="eJNdkGEpaUKo2zQjEefQ-15" value="2. Desarrollo" style="rounded=0;whiteSpace=wrap;html=1;" vertex="1" parent="1">
          <mxGeometry x="827" y="177.5" width="130" height="35" as="geometry" />
        </mxCell>
        <mxCell id="eJNdkGEpaUKo2zQjEefQ-16" value="1.1.2 Determinar Scope del proyecto" style="rounded=0;whiteSpace=wrap;html=1;" vertex="1" parent="1">
          <mxGeometry x="10" y="375" width="100" height="50" as="geometry" />
        </mxCell>
        <mxCell id="eJNdkGEpaUKo2zQjEefQ-17" value="1.1.5 Identificar Casos de uso" style="rounded=0;whiteSpace=wrap;html=1;" vertex="1" parent="1">
          <mxGeometry x="10" y="555" width="100" height="50" as="geometry" />
        </mxCell>
        <mxCell id="eJNdkGEpaUKo2zQjEefQ-18" value="1.2.4 Diseño de un prototipo" style="rounded=0;whiteSpace=wrap;html=1;" vertex="1" parent="1">
          <mxGeometry x="150" y="525" width="100" height="50" as="geometry" />
        </mxCell>
        <mxCell id="eJNdkGEpaUKo2zQjEefQ-19" value="" style="endArrow=none;html=1;rounded=0;" edge="1" parent="1">
          <mxGeometry width="50" height="50" relative="1" as="geometry">
            <mxPoint x="170" y="120" as="sourcePoint" />
            <mxPoint x="2430" y="120" as="targetPoint" />
          </mxGeometry>
        </mxCell>
        <mxCell id="eJNdkGEpaUKo2zQjEefQ-20" value="" style="endArrow=none;html=1;rounded=0;exitX=0.467;exitY=0.011;exitDx=0;exitDy=0;exitPerimeter=0;" edge="1" parent="1" source="eJNdkGEpaUKo2zQjEefQ-2">
          <mxGeometry width="50" height="50" relative="1" as="geometry">
            <mxPoint x="230" y="220" as="sourcePoint" />
            <mxPoint x="170" y="120" as="targetPoint" />
          </mxGeometry>
        </mxCell>
        <mxCell id="eJNdkGEpaUKo2zQjEefQ-21" value="" style="endArrow=none;html=1;rounded=0;entryX=0.091;entryY=1.002;entryDx=0;entryDy=0;entryPerimeter=0;" edge="1" parent="1" target="eJNdkGEpaUKo2zQjEefQ-3">
          <mxGeometry width="50" height="50" relative="1" as="geometry">
            <mxPoint y="605" as="sourcePoint" />
            <mxPoint x="270" y="425" as="targetPoint" />
          </mxGeometry>
        </mxCell>
        <mxCell id="eJNdkGEpaUKo2zQjEefQ-22" value="" style="endArrow=none;html=1;rounded=0;entryX=0;entryY=0.401;entryDx=0;entryDy=0;entryPerimeter=0;" edge="1" parent="1" target="eJNdkGEpaUKo2zQjEefQ-6">
          <mxGeometry width="50" height="50" relative="1" as="geometry">
            <mxPoint y="335" as="sourcePoint" />
            <mxPoint x="270" y="425" as="targetPoint" />
          </mxGeometry>
        </mxCell>
        <mxCell id="eJNdkGEpaUKo2zQjEefQ-23" value="" style="endArrow=none;html=1;rounded=0;entryX=0;entryY=0.401;entryDx=0;entryDy=0;entryPerimeter=0;" edge="1" parent="1">
          <mxGeometry width="50" height="50" relative="1" as="geometry">
            <mxPoint y="399.9" as="sourcePoint" />
            <mxPoint x="10" y="399.9" as="targetPoint" />
          </mxGeometry>
        </mxCell>
        <mxCell id="eJNdkGEpaUKo2zQjEefQ-24" value="" style="endArrow=none;html=1;rounded=0;entryX=0;entryY=0.401;entryDx=0;entryDy=0;entryPerimeter=0;" edge="1" parent="1">
          <mxGeometry width="50" height="50" relative="1" as="geometry">
            <mxPoint y="459.9" as="sourcePoint" />
            <mxPoint x="10" y="459.9" as="targetPoint" />
          </mxGeometry>
        </mxCell>
        <mxCell id="eJNdkGEpaUKo2zQjEefQ-25" value="" style="endArrow=none;html=1;rounded=0;entryX=0;entryY=0.401;entryDx=0;entryDy=0;entryPerimeter=0;" edge="1" parent="1">
          <mxGeometry width="50" height="50" relative="1" as="geometry">
            <mxPoint y="519.94" as="sourcePoint" />
            <mxPoint x="10" y="519.94" as="targetPoint" />
          </mxGeometry>
        </mxCell>
        <mxCell id="eJNdkGEpaUKo2zQjEefQ-26" value="" style="endArrow=none;html=1;rounded=0;entryX=0;entryY=0.401;entryDx=0;entryDy=0;entryPerimeter=0;" edge="1" parent="1">
          <mxGeometry width="50" height="50" relative="1" as="geometry">
            <mxPoint y="579.94" as="sourcePoint" />
            <mxPoint x="10" y="579.94" as="targetPoint" />
          </mxGeometry>
        </mxCell>
        <mxCell id="eJNdkGEpaUKo2zQjEefQ-27" value="" style="endArrow=none;html=1;rounded=0;entryX=0.078;entryY=1.04;entryDx=0;entryDy=0;entryPerimeter=0;" edge="1" parent="1" target="eJNdkGEpaUKo2zQjEefQ-7">
          <mxGeometry width="50" height="50" relative="1" as="geometry">
            <mxPoint x="140" y="575" as="sourcePoint" />
            <mxPoint x="140" y="305" as="targetPoint" />
          </mxGeometry>
        </mxCell>
        <mxCell id="eJNdkGEpaUKo2zQjEefQ-28" value="" style="endArrow=none;html=1;rounded=0;entryX=0;entryY=0.401;entryDx=0;entryDy=0;entryPerimeter=0;" edge="1" parent="1">
          <mxGeometry width="50" height="50" relative="1" as="geometry">
            <mxPoint x="140" y="345" as="sourcePoint" />
            <mxPoint x="150" y="345" as="targetPoint" />
          </mxGeometry>
        </mxCell>
        <mxCell id="eJNdkGEpaUKo2zQjEefQ-29" value="" style="endArrow=none;html=1;rounded=0;entryX=0;entryY=0.401;entryDx=0;entryDy=0;entryPerimeter=0;" edge="1" parent="1">
          <mxGeometry width="50" height="50" relative="1" as="geometry">
            <mxPoint x="140" y="409.9" as="sourcePoint" />
            <mxPoint x="150" y="409.9" as="targetPoint" />
          </mxGeometry>
        </mxCell>
        <mxCell id="eJNdkGEpaUKo2zQjEefQ-30" value="" style="endArrow=none;html=1;rounded=0;entryX=0;entryY=0.401;entryDx=0;entryDy=0;entryPerimeter=0;" edge="1" parent="1">
          <mxGeometry width="50" height="50" relative="1" as="geometry">
            <mxPoint x="140" y="549.88" as="sourcePoint" />
            <mxPoint x="150" y="549.88" as="targetPoint" />
          </mxGeometry>
        </mxCell>
        <mxCell id="eJNdkGEpaUKo2zQjEefQ-31" value="2.2 Desarrollo del Backend" style="rounded=0;whiteSpace=wrap;html=1;" vertex="1" parent="1">
          <mxGeometry x="600" y="282" width="120" height="30" as="geometry" />
        </mxCell>
        <mxCell id="eJNdkGEpaUKo2zQjEefQ-32" value="2.1.1 Configuración del en torno de DEV-QA en Firebase" style="rounded=0;whiteSpace=wrap;html=1;" vertex="1" parent="1">
          <mxGeometry x="470" y="322" width="120" height="40" as="geometry" />
        </mxCell>
        <mxCell id="eJNdkGEpaUKo2zQjEefQ-33" value="&lt;div&gt;2.1.2 Modelado de Datos y estructura&lt;/div&gt;" style="rounded=0;whiteSpace=wrap;html=1;" vertex="1" parent="1">
          <mxGeometry x="470" y="377" width="120" height="40" as="geometry" />
        </mxCell>
        <mxCell id="eJNdkGEpaUKo2zQjEefQ-34" value="&lt;div&gt;2.1.3 Configuración de seguridad y roles&lt;br&gt;&lt;/div&gt;" style="rounded=0;whiteSpace=wrap;html=1;" vertex="1" parent="1">
          <mxGeometry x="470" y="432" width="120" height="40" as="geometry" />
        </mxCell>
        <mxCell id="eJNdkGEpaUKo2zQjEefQ-35" value="2.1 Desarrollo de la DB" style="rounded=0;whiteSpace=wrap;html=1;" vertex="1" parent="1">
          <mxGeometry x="450" y="282" width="120" height="30" as="geometry" />
        </mxCell>
        <mxCell id="eJNdkGEpaUKo2zQjEefQ-36" value="2.2.1 Configuración del entorno DEV-QA en Local (Python)" style="rounded=0;whiteSpace=wrap;html=1;" vertex="1" parent="1">
          <mxGeometry x="620" y="322" width="120" height="50" as="geometry" />
        </mxCell>
        <mxCell id="eJNdkGEpaUKo2zQjEefQ-37" value="2.2.2 Diseño de los endpoints (API Rest)" style="rounded=0;whiteSpace=wrap;html=1;" vertex="1" parent="1">
          <mxGeometry x="620" y="382" width="120" height="40" as="geometry" />
        </mxCell>
        <mxCell id="eJNdkGEpaUKo2zQjEefQ-38" value="2.2.3 Implementación de los endpoints" style="rounded=0;whiteSpace=wrap;html=1;" vertex="1" parent="1">
          <mxGeometry x="620" y="437" width="120" height="40" as="geometry" />
        </mxCell>
        <mxCell id="eJNdkGEpaUKo2zQjEefQ-39" value="2.2.4 Implementación de Modelos en torno a la DB" style="rounded=0;whiteSpace=wrap;html=1;" vertex="1" parent="1">
          <mxGeometry x="620" y="492" width="120" height="60" as="geometry" />
        </mxCell>
        <mxCell id="eJNdkGEpaUKo2zQjEefQ-40" value="2.2.5 Integración con la DB de Firebase" style="rounded=0;whiteSpace=wrap;html=1;" vertex="1" parent="1">
          <mxGeometry x="620" y="567" width="120" height="60" as="geometry" />
        </mxCell>
        <mxCell id="eJNdkGEpaUKo2zQjEefQ-41" value="2.2.6 Implementación de Roles y seguridad" style="rounded=0;whiteSpace=wrap;html=1;" vertex="1" parent="1">
          <mxGeometry x="620" y="642" width="120" height="60" as="geometry" />
        </mxCell>
        <mxCell id="eJNdkGEpaUKo2zQjEefQ-42" value="2.3 Desarrollo del Frontend" style="rounded=0;whiteSpace=wrap;html=1;" vertex="1" parent="1">
          <mxGeometry x="780" y="282" width="120" height="30" as="geometry" />
        </mxCell>
        <mxCell id="eJNdkGEpaUKo2zQjEefQ-43" value="2.3.1 Configuración del entorno DEV-QA en Local (React)" style="rounded=0;whiteSpace=wrap;html=1;" vertex="1" parent="1">
          <mxGeometry x="810" y="322" width="120" height="50" as="geometry" />
        </mxCell>
        <mxCell id="eJNdkGEpaUKo2zQjEefQ-44" value="2.3.2 Implementación de componentes" style="rounded=0;whiteSpace=wrap;html=1;" vertex="1" parent="1">
          <mxGeometry x="810" y="387" width="120" height="40" as="geometry" />
        </mxCell>
        <mxCell id="eJNdkGEpaUKo2zQjEefQ-45" value="2.3.3 Implementación del diseño Responsive" style="rounded=0;whiteSpace=wrap;html=1;" vertex="1" parent="1">
          <mxGeometry x="810" y="442" width="120" height="40" as="geometry" />
        </mxCell>
        <mxCell id="eJNdkGEpaUKo2zQjEefQ-46" value="2.3.4 Conexión con el Backend, implementación de CRUD" style="rounded=0;whiteSpace=wrap;html=1;" vertex="1" parent="1">
          <mxGeometry x="810" y="497" width="120" height="65" as="geometry" />
        </mxCell>
        <mxCell id="eJNdkGEpaUKo2zQjEefQ-47" value="2.3.5 Conexión con el Backend, implementación de CRUD y endpoints" style="rounded=0;whiteSpace=wrap;html=1;" vertex="1" parent="1">
          <mxGeometry x="810" y="577" width="120" height="65" as="geometry" />
        </mxCell>
        <mxCell id="eJNdkGEpaUKo2zQjEefQ-48" value="" style="endArrow=none;html=1;rounded=0;" edge="1" parent="1">
          <mxGeometry width="50" height="50" relative="1" as="geometry">
            <mxPoint x="280" y="505" as="sourcePoint" />
            <mxPoint x="280" y="305" as="targetPoint" />
          </mxGeometry>
        </mxCell>
        <mxCell id="eJNdkGEpaUKo2zQjEefQ-49" value="" style="endArrow=none;html=1;rounded=0;entryX=0;entryY=0.401;entryDx=0;entryDy=0;entryPerimeter=0;" edge="1" parent="1">
          <mxGeometry width="50" height="50" relative="1" as="geometry">
            <mxPoint x="280" y="335" as="sourcePoint" />
            <mxPoint x="300" y="335" as="targetPoint" />
          </mxGeometry>
        </mxCell>
        <mxCell id="eJNdkGEpaUKo2zQjEefQ-50" value="" style="endArrow=none;html=1;rounded=0;entryX=0;entryY=0.401;entryDx=0;entryDy=0;entryPerimeter=0;" edge="1" parent="1">
          <mxGeometry width="50" height="50" relative="1" as="geometry">
            <mxPoint x="280" y="400" as="sourcePoint" />
            <mxPoint x="300" y="399.9" as="targetPoint" />
          </mxGeometry>
        </mxCell>
        <mxCell id="eJNdkGEpaUKo2zQjEefQ-51" value="" style="endArrow=none;html=1;rounded=0;entryX=0;entryY=0.401;entryDx=0;entryDy=0;entryPerimeter=0;" edge="1" parent="1">
          <mxGeometry width="50" height="50" relative="1" as="geometry">
            <mxPoint x="280" y="480.1" as="sourcePoint" />
            <mxPoint x="300" y="480" as="targetPoint" />
          </mxGeometry>
        </mxCell>
        <mxCell id="eJNdkGEpaUKo2zQjEefQ-52" value="2.4 Desarrollo APP Mobile Android" style="rounded=0;whiteSpace=wrap;html=1;" vertex="1" parent="1">
          <mxGeometry x="970" y="282" width="120" height="30" as="geometry" />
        </mxCell>
        <mxCell id="eJNdkGEpaUKo2zQjEefQ-53" value="2.4.1 Implementación del entorno local Android Studio" style="rounded=0;whiteSpace=wrap;html=1;" vertex="1" parent="1">
          <mxGeometry x="990" y="322" width="120" height="60" as="geometry" />
        </mxCell>
        <mxCell id="eJNdkGEpaUKo2zQjEefQ-54" value="2.4.2 Implementación de la interfaz mobile" style="rounded=0;whiteSpace=wrap;html=1;" vertex="1" parent="1">
          <mxGeometry x="990" y="402" width="120" height="60" as="geometry" />
        </mxCell>
        <mxCell id="eJNdkGEpaUKo2zQjEefQ-55" value="2.4.3 Integración con el front REACT" style="rounded=0;whiteSpace=wrap;html=1;" vertex="1" parent="1">
          <mxGeometry x="990" y="482" width="120" height="60" as="geometry" />
        </mxCell>
        <mxCell id="eJNdkGEpaUKo2zQjEefQ-56" value="2.5 Desarrollo APP Mobile IOs" style="rounded=0;whiteSpace=wrap;html=1;" vertex="1" parent="1">
          <mxGeometry x="1160" y="282" width="120" height="30" as="geometry" />
        </mxCell>
        <mxCell id="eJNdkGEpaUKo2zQjEefQ-57" value="2.5.1 Implementación del entorno local XCode" style="rounded=0;whiteSpace=wrap;html=1;" vertex="1" parent="1">
          <mxGeometry x="1195" y="322" width="120" height="60" as="geometry" />
        </mxCell>
        <mxCell id="eJNdkGEpaUKo2zQjEefQ-58" value="2.5.2 Implementación de la interfaz mobile" style="rounded=0;whiteSpace=wrap;html=1;" vertex="1" parent="1">
          <mxGeometry x="1195" y="402" width="120" height="60" as="geometry" />
        </mxCell>
        <mxCell id="eJNdkGEpaUKo2zQjEefQ-59" value="2.5.3 Integración con el front REACT" style="rounded=0;whiteSpace=wrap;html=1;" vertex="1" parent="1">
          <mxGeometry x="1195" y="482" width="120" height="60" as="geometry" />
        </mxCell>
        <mxCell id="eJNdkGEpaUKo2zQjEefQ-60" value="3. Testing" style="rounded=0;whiteSpace=wrap;html=1;" vertex="1" parent="1">
          <mxGeometry x="1529" y="177.5" width="130" height="35" as="geometry" />
        </mxCell>
        <mxCell id="eJNdkGEpaUKo2zQjEefQ-61" value="" style="endArrow=none;html=1;rounded=0;" edge="1" parent="1">
          <mxGeometry width="50" height="50" relative="1" as="geometry">
            <mxPoint x="460" y="560" as="sourcePoint" />
            <mxPoint x="459.43" y="312" as="targetPoint" />
          </mxGeometry>
        </mxCell>
        <mxCell id="eJNdkGEpaUKo2zQjEefQ-62" value="3.1 Testing DB" style="rounded=0;whiteSpace=wrap;html=1;" vertex="1" parent="1">
          <mxGeometry x="1350" y="281" width="120" height="30" as="geometry" />
        </mxCell>
        <mxCell id="eJNdkGEpaUKo2zQjEefQ-63" value="3.1.1 Test unitarios" style="rounded=0;whiteSpace=wrap;html=1;" vertex="1" parent="1">
          <mxGeometry x="1379" y="323" width="120" height="40" as="geometry" />
        </mxCell>
        <mxCell id="eJNdkGEpaUKo2zQjEefQ-64" value="3.1.2 Test de performance" style="rounded=0;whiteSpace=wrap;html=1;" vertex="1" parent="1">
          <mxGeometry x="1379" y="383" width="120" height="40" as="geometry" />
        </mxCell>
        <mxCell id="eJNdkGEpaUKo2zQjEefQ-65" value="3.1.3 Test de seguridad" style="rounded=0;whiteSpace=wrap;html=1;" vertex="1" parent="1">
          <mxGeometry x="1379" y="448" width="120" height="40" as="geometry" />
        </mxCell>
        <mxCell id="eJNdkGEpaUKo2zQjEefQ-66" value="3.2 Testing Backend" style="rounded=0;whiteSpace=wrap;html=1;" vertex="1" parent="1">
          <mxGeometry x="1527" y="281" width="120" height="30" as="geometry" />
        </mxCell>
        <mxCell id="eJNdkGEpaUKo2zQjEefQ-67" value="3.2.1 Test unitarios" style="rounded=0;whiteSpace=wrap;html=1;" vertex="1" parent="1">
          <mxGeometry x="1547" y="326" width="120" height="40" as="geometry" />
        </mxCell>
        <mxCell id="eJNdkGEpaUKo2zQjEefQ-68" value="3.2.2 Tests de Carga" style="rounded=0;whiteSpace=wrap;html=1;" vertex="1" parent="1">
          <mxGeometry x="1547" y="386" width="120" height="40" as="geometry" />
        </mxCell>
        <mxCell id="eJNdkGEpaUKo2zQjEefQ-69" value="3.3 Testing Frontend" style="rounded=0;whiteSpace=wrap;html=1;" vertex="1" parent="1">
          <mxGeometry x="1700" y="281" width="120" height="30" as="geometry" />
        </mxCell>
        <mxCell id="eJNdkGEpaUKo2zQjEefQ-70" value="3.3.1 Test unitarios" style="rounded=0;whiteSpace=wrap;html=1;" vertex="1" parent="1">
          <mxGeometry x="1730" y="321" width="120" height="40" as="geometry" />
        </mxCell>
        <mxCell id="eJNdkGEpaUKo2zQjEefQ-71" value="3.3.2 Tests de Performance" style="rounded=0;whiteSpace=wrap;html=1;" vertex="1" parent="1">
          <mxGeometry x="1730" y="376" width="120" height="40" as="geometry" />
        </mxCell>
        <mxCell id="eJNdkGEpaUKo2zQjEefQ-72" value="3.3.4 Tests de UX en cada plataforma" style="rounded=0;whiteSpace=wrap;html=1;" vertex="1" parent="1">
          <mxGeometry x="1730" y="486" width="120" height="40" as="geometry" />
        </mxCell>
        <mxCell id="eJNdkGEpaUKo2zQjEefQ-73" value="3.2.3 Test de seguridad" style="rounded=0;whiteSpace=wrap;html=1;" vertex="1" parent="1">
          <mxGeometry x="1547" y="441" width="120" height="40" as="geometry" />
        </mxCell>
        <mxCell id="eJNdkGEpaUKo2zQjEefQ-74" value="3.3.3 Test de seguridad" style="rounded=0;whiteSpace=wrap;html=1;" vertex="1" parent="1">
          <mxGeometry x="1730" y="431" width="120" height="40" as="geometry" />
        </mxCell>
        <mxCell id="eJNdkGEpaUKo2zQjEefQ-75" value="4. Deploy en producción" style="rounded=0;whiteSpace=wrap;html=1;" vertex="1" parent="1">
          <mxGeometry x="2010" y="177.5" width="130" height="35" as="geometry" />
        </mxCell>
        <mxCell id="eJNdkGEpaUKo2zQjEefQ-76" value="4.1 Deploy de PROD Firebase" style="rounded=0;whiteSpace=wrap;html=1;" vertex="1" parent="1">
          <mxGeometry x="2040" y="235" width="120" height="30" as="geometry" />
        </mxCell>
        <mxCell id="eJNdkGEpaUKo2zQjEefQ-77" value="4.2 Deploy de PROD Backend" style="rounded=0;whiteSpace=wrap;html=1;" vertex="1" parent="1">
          <mxGeometry x="2040" y="280" width="120" height="40" as="geometry" />
        </mxCell>
        <mxCell id="eJNdkGEpaUKo2zQjEefQ-78" value="4.3 Deploy de PROD Frontend" style="rounded=0;whiteSpace=wrap;html=1;" vertex="1" parent="1">
          <mxGeometry x="2040" y="335" width="120" height="40" as="geometry" />
        </mxCell>
        <mxCell id="eJNdkGEpaUKo2zQjEefQ-79" value="4.4 Vincular entornos de Prod en cada layer" style="rounded=0;whiteSpace=wrap;html=1;" vertex="1" parent="1">
          <mxGeometry x="2040" y="390" width="120" height="50" as="geometry" />
        </mxCell>
        <mxCell id="eJNdkGEpaUKo2zQjEefQ-80" value="4.5 Publicación de las aplicaciones en su respectiva STORE" style="rounded=0;whiteSpace=wrap;html=1;" vertex="1" parent="1">
          <mxGeometry x="2040" y="460" width="120" height="50" as="geometry" />
        </mxCell>
        <mxCell id="eJNdkGEpaUKo2zQjEefQ-81" value="5. Soporte y Revisiones" style="rounded=0;whiteSpace=wrap;html=1;" vertex="1" parent="1">
          <mxGeometry x="2240" y="180" width="130" height="35" as="geometry" />
        </mxCell>
        <mxCell id="eJNdkGEpaUKo2zQjEefQ-82" value="5.1Monitoreo de funcionamiento y asistencia" style="rounded=0;whiteSpace=wrap;html=1;" vertex="1" parent="1">
          <mxGeometry x="2270" y="235" width="120" height="45" as="geometry" />
        </mxCell>
        <mxCell id="eJNdkGEpaUKo2zQjEefQ-83" value="5.2Solución de Bugs" style="rounded=0;whiteSpace=wrap;html=1;" vertex="1" parent="1">
          <mxGeometry x="2270" y="295" width="120" height="30" as="geometry" />
        </mxCell>
        <mxCell id="eJNdkGEpaUKo2zQjEefQ-84" value="" style="endArrow=none;html=1;rounded=0;" edge="1" parent="1">
          <mxGeometry width="50" height="50" relative="1" as="geometry">
            <mxPoint x="610" y="810" as="sourcePoint" />
            <mxPoint x="609.76" y="312" as="targetPoint" />
          </mxGeometry>
        </mxCell>
        <mxCell id="eJNdkGEpaUKo2zQjEefQ-85" value="" style="endArrow=none;html=1;rounded=0;entryX=0;entryY=0.401;entryDx=0;entryDy=0;entryPerimeter=0;" edge="1" parent="1">
          <mxGeometry width="50" height="50" relative="1" as="geometry">
            <mxPoint x="460" y="337" as="sourcePoint" />
            <mxPoint x="470" y="337" as="targetPoint" />
          </mxGeometry>
        </mxCell>
        <mxCell id="eJNdkGEpaUKo2zQjEefQ-86" value="" style="endArrow=none;html=1;rounded=0;entryX=0;entryY=0.401;entryDx=0;entryDy=0;entryPerimeter=0;" edge="1" parent="1">
          <mxGeometry width="50" height="50" relative="1" as="geometry">
            <mxPoint x="460" y="401.9" as="sourcePoint" />
            <mxPoint x="470" y="401.9" as="targetPoint" />
          </mxGeometry>
        </mxCell>
        <mxCell id="eJNdkGEpaUKo2zQjEefQ-87" value="" style="endArrow=none;html=1;rounded=0;entryX=0;entryY=0.401;entryDx=0;entryDy=0;entryPerimeter=0;" edge="1" parent="1">
          <mxGeometry width="50" height="50" relative="1" as="geometry">
            <mxPoint x="460" y="451.84999999999997" as="sourcePoint" />
            <mxPoint x="470" y="451.84999999999997" as="targetPoint" />
          </mxGeometry>
        </mxCell>
        <mxCell id="eJNdkGEpaUKo2zQjEefQ-88" value="" style="endArrow=none;html=1;rounded=0;" edge="1" parent="1">
          <mxGeometry width="50" height="50" relative="1" as="geometry">
            <mxPoint x="789" y="720" as="sourcePoint" />
            <mxPoint x="789.35" y="312" as="targetPoint" />
          </mxGeometry>
        </mxCell>
        <mxCell id="eJNdkGEpaUKo2zQjEefQ-89" value="" style="endArrow=none;html=1;rounded=0;entryX=0;entryY=0.401;entryDx=0;entryDy=0;entryPerimeter=0;" edge="1" parent="1">
          <mxGeometry width="50" height="50" relative="1" as="geometry">
            <mxPoint x="610" y="356.97" as="sourcePoint" />
            <mxPoint x="620" y="356.97" as="targetPoint" />
          </mxGeometry>
        </mxCell>
        <mxCell id="eJNdkGEpaUKo2zQjEefQ-90" value="" style="endArrow=none;html=1;rounded=0;entryX=0;entryY=0.401;entryDx=0;entryDy=0;entryPerimeter=0;" edge="1" parent="1">
          <mxGeometry width="50" height="50" relative="1" as="geometry">
            <mxPoint x="610" y="401.82" as="sourcePoint" />
            <mxPoint x="620" y="401.82" as="targetPoint" />
          </mxGeometry>
        </mxCell>
        <mxCell id="eJNdkGEpaUKo2zQjEefQ-91" value="" style="endArrow=none;html=1;rounded=0;entryX=0;entryY=0.401;entryDx=0;entryDy=0;entryPerimeter=0;" edge="1" parent="1">
          <mxGeometry width="50" height="50" relative="1" as="geometry">
            <mxPoint x="610" y="456.90999999999997" as="sourcePoint" />
            <mxPoint x="620" y="456.90999999999997" as="targetPoint" />
          </mxGeometry>
        </mxCell>
        <mxCell id="eJNdkGEpaUKo2zQjEefQ-92" value="" style="endArrow=none;html=1;rounded=0;entryX=0;entryY=0.401;entryDx=0;entryDy=0;entryPerimeter=0;" edge="1" parent="1">
          <mxGeometry width="50" height="50" relative="1" as="geometry">
            <mxPoint x="610" y="526.91" as="sourcePoint" />
            <mxPoint x="620" y="526.91" as="targetPoint" />
          </mxGeometry>
        </mxCell>
        <mxCell id="eJNdkGEpaUKo2zQjEefQ-93" value="" style="endArrow=none;html=1;rounded=0;entryX=0;entryY=0.401;entryDx=0;entryDy=0;entryPerimeter=0;" edge="1" parent="1">
          <mxGeometry width="50" height="50" relative="1" as="geometry">
            <mxPoint x="610" y="596.87" as="sourcePoint" />
            <mxPoint x="620" y="596.87" as="targetPoint" />
          </mxGeometry>
        </mxCell>
        <mxCell id="eJNdkGEpaUKo2zQjEefQ-94" value="" style="endArrow=none;html=1;rounded=0;entryX=0;entryY=0.401;entryDx=0;entryDy=0;entryPerimeter=0;" edge="1" parent="1">
          <mxGeometry width="50" height="50" relative="1" as="geometry">
            <mxPoint x="610" y="671.87" as="sourcePoint" />
            <mxPoint x="620" y="671.87" as="targetPoint" />
          </mxGeometry>
        </mxCell>
        <mxCell id="eJNdkGEpaUKo2zQjEefQ-95" value="" style="endArrow=none;html=1;rounded=0;entryX=0.005;entryY=0.6;entryDx=0;entryDy=0;entryPerimeter=0;" edge="1" parent="1" target="eJNdkGEpaUKo2zQjEefQ-43">
          <mxGeometry width="50" height="50" relative="1" as="geometry">
            <mxPoint x="790" y="351.86" as="sourcePoint" />
            <mxPoint x="800" y="351.86" as="targetPoint" />
          </mxGeometry>
        </mxCell>
        <mxCell id="eJNdkGEpaUKo2zQjEefQ-96" value="" style="endArrow=none;html=1;rounded=0;entryX=0.005;entryY=0.62;entryDx=0;entryDy=0;entryPerimeter=0;" edge="1" parent="1" target="eJNdkGEpaUKo2zQjEefQ-44">
          <mxGeometry width="50" height="50" relative="1" as="geometry">
            <mxPoint x="790" y="412" as="sourcePoint" />
            <mxPoint x="800" y="396.71" as="targetPoint" />
          </mxGeometry>
        </mxCell>
        <mxCell id="eJNdkGEpaUKo2zQjEefQ-97" value="" style="endArrow=none;html=1;rounded=0;entryX=0;entryY=0.25;entryDx=0;entryDy=0;" edge="1" parent="1" target="eJNdkGEpaUKo2zQjEefQ-45">
          <mxGeometry width="50" height="50" relative="1" as="geometry">
            <mxPoint x="790" y="451.79999999999995" as="sourcePoint" />
            <mxPoint x="800" y="451.79999999999995" as="targetPoint" />
          </mxGeometry>
        </mxCell>
        <mxCell id="eJNdkGEpaUKo2zQjEefQ-98" value="" style="endArrow=none;html=1;rounded=0;entryX=0.003;entryY=0.384;entryDx=0;entryDy=0;entryPerimeter=0;" edge="1" parent="1" target="eJNdkGEpaUKo2zQjEefQ-46">
          <mxGeometry width="50" height="50" relative="1" as="geometry">
            <mxPoint x="790" y="521.8" as="sourcePoint" />
            <mxPoint x="800" y="522" as="targetPoint" />
          </mxGeometry>
        </mxCell>
        <mxCell id="eJNdkGEpaUKo2zQjEefQ-99" value="" style="endArrow=none;html=1;rounded=0;entryX=0.003;entryY=0.384;entryDx=0;entryDy=0;entryPerimeter=0;" edge="1" parent="1">
          <mxGeometry width="50" height="50" relative="1" as="geometry">
            <mxPoint x="790" y="609.3599999999999" as="sourcePoint" />
            <mxPoint x="810" y="609.56" as="targetPoint" />
          </mxGeometry>
        </mxCell>
        <mxCell id="eJNdkGEpaUKo2zQjEefQ-100" value="" style="endArrow=none;html=1;rounded=0;" edge="1" parent="1">
          <mxGeometry width="50" height="50" relative="1" as="geometry">
            <mxPoint x="980" y="600" as="sourcePoint" />
            <mxPoint x="979.74" y="312" as="targetPoint" />
          </mxGeometry>
        </mxCell>
        <mxCell id="eJNdkGEpaUKo2zQjEefQ-101" value="" style="endArrow=none;html=1;rounded=0;entryX=0;entryY=0.401;entryDx=0;entryDy=0;entryPerimeter=0;" edge="1" parent="1">
          <mxGeometry width="50" height="50" relative="1" as="geometry">
            <mxPoint x="980" y="348.83000000000004" as="sourcePoint" />
            <mxPoint x="990" y="348.83000000000004" as="targetPoint" />
          </mxGeometry>
        </mxCell>
        <mxCell id="eJNdkGEpaUKo2zQjEefQ-102" value="" style="endArrow=none;html=1;rounded=0;entryX=0;entryY=0.401;entryDx=0;entryDy=0;entryPerimeter=0;" edge="1" parent="1">
          <mxGeometry width="50" height="50" relative="1" as="geometry">
            <mxPoint x="980" y="434.34000000000003" as="sourcePoint" />
            <mxPoint x="990" y="434.34000000000003" as="targetPoint" />
          </mxGeometry>
        </mxCell>
        <mxCell id="eJNdkGEpaUKo2zQjEefQ-103" value="" style="endArrow=none;html=1;rounded=0;entryX=0;entryY=0.401;entryDx=0;entryDy=0;entryPerimeter=0;" edge="1" parent="1">
          <mxGeometry width="50" height="50" relative="1" as="geometry">
            <mxPoint x="980" y="511.87999999999994" as="sourcePoint" />
            <mxPoint x="990" y="511.87999999999994" as="targetPoint" />
          </mxGeometry>
        </mxCell>
        <mxCell id="eJNdkGEpaUKo2zQjEefQ-104" value="" style="endArrow=none;html=1;rounded=0;" edge="1" parent="1">
          <mxGeometry width="50" height="50" relative="1" as="geometry">
            <mxPoint x="1169" y="600" as="sourcePoint" />
            <mxPoint x="1169.44" y="312" as="targetPoint" />
          </mxGeometry>
        </mxCell>
        <mxCell id="eJNdkGEpaUKo2zQjEefQ-105" value="" style="endArrow=none;html=1;rounded=0;" edge="1" parent="1">
          <mxGeometry width="50" height="50" relative="1" as="geometry">
            <mxPoint x="1359" y="491" as="sourcePoint" />
            <mxPoint x="1359.44" y="311" as="targetPoint" />
          </mxGeometry>
        </mxCell>
        <mxCell id="eJNdkGEpaUKo2zQjEefQ-106" value="" style="endArrow=none;html=1;rounded=0;" edge="1" parent="1">
          <mxGeometry width="50" height="50" relative="1" as="geometry">
            <mxPoint x="1534" y="481" as="sourcePoint" />
            <mxPoint x="1534.44" y="311" as="targetPoint" />
          </mxGeometry>
        </mxCell>
        <mxCell id="eJNdkGEpaUKo2zQjEefQ-107" value="" style="endArrow=none;html=1;rounded=0;" edge="1" parent="1">
          <mxGeometry width="50" height="50" relative="1" as="geometry">
            <mxPoint x="1710" y="531" as="sourcePoint" />
            <mxPoint x="1710.44" y="311" as="targetPoint" />
          </mxGeometry>
        </mxCell>
        <mxCell id="eJNdkGEpaUKo2zQjEefQ-108" value="" style="endArrow=none;html=1;rounded=0;" edge="1" parent="1">
          <mxGeometry width="50" height="50" relative="1" as="geometry">
            <mxPoint x="2020" y="510" as="sourcePoint" />
            <mxPoint x="2020.44" y="212.5" as="targetPoint" />
          </mxGeometry>
        </mxCell>
        <mxCell id="eJNdkGEpaUKo2zQjEefQ-109" value="" style="endArrow=none;html=1;rounded=0;" edge="1" parent="1">
          <mxGeometry width="50" height="50" relative="1" as="geometry">
            <mxPoint x="2250" y="330" as="sourcePoint" />
            <mxPoint x="2249.7" y="216.25" as="targetPoint" />
          </mxGeometry>
        </mxCell>
        <mxCell id="eJNdkGEpaUKo2zQjEefQ-110" value="" style="endArrow=none;html=1;rounded=0;entryX=0.002;entryY=0.607;entryDx=0;entryDy=0;entryPerimeter=0;" edge="1" parent="1" target="eJNdkGEpaUKo2zQjEefQ-57">
          <mxGeometry width="50" height="50" relative="1" as="geometry">
            <mxPoint x="1169" y="358.75000000000006" as="sourcePoint" />
            <mxPoint x="1179" y="358.75000000000006" as="targetPoint" />
          </mxGeometry>
        </mxCell>
        <mxCell id="eJNdkGEpaUKo2zQjEefQ-111" value="" style="endArrow=none;html=1;rounded=0;entryX=0.007;entryY=0.7;entryDx=0;entryDy=0;entryPerimeter=0;" edge="1" parent="1" target="eJNdkGEpaUKo2zQjEefQ-58">
          <mxGeometry width="50" height="50" relative="1" as="geometry">
            <mxPoint x="1169" y="444.26000000000005" as="sourcePoint" />
            <mxPoint x="1179" y="444.26000000000005" as="targetPoint" />
          </mxGeometry>
        </mxCell>
        <mxCell id="eJNdkGEpaUKo2zQjEefQ-112" value="" style="endArrow=none;html=1;rounded=0;entryX=0.01;entryY=0.667;entryDx=0;entryDy=0;entryPerimeter=0;" edge="1" parent="1" target="eJNdkGEpaUKo2zQjEefQ-59">
          <mxGeometry width="50" height="50" relative="1" as="geometry">
            <mxPoint x="1169" y="521.8" as="sourcePoint" />
            <mxPoint x="1179" y="521.8" as="targetPoint" />
          </mxGeometry>
        </mxCell>
        <mxCell id="eJNdkGEpaUKo2zQjEefQ-113" value="" style="endArrow=none;html=1;rounded=0;entryX=-0.004;entryY=0.357;entryDx=0;entryDy=0;entryPerimeter=0;" edge="1" parent="1" target="eJNdkGEpaUKo2zQjEefQ-63">
          <mxGeometry width="50" height="50" relative="1" as="geometry">
            <mxPoint x="1360" y="337.75000000000006" as="sourcePoint" />
            <mxPoint x="1370" y="337.75000000000006" as="targetPoint" />
          </mxGeometry>
        </mxCell>
        <mxCell id="eJNdkGEpaUKo2zQjEefQ-114" value="" style="endArrow=none;html=1;rounded=0;entryX=-0.014;entryY=0.5;entryDx=0;entryDy=0;entryPerimeter=0;" edge="1" parent="1" target="eJNdkGEpaUKo2zQjEefQ-64">
          <mxGeometry width="50" height="50" relative="1" as="geometry">
            <mxPoint x="1360" y="402.90000000000003" as="sourcePoint" />
            <mxPoint x="1370" y="402.90000000000003" as="targetPoint" />
          </mxGeometry>
        </mxCell>
        <mxCell id="eJNdkGEpaUKo2zQjEefQ-115" value="" style="endArrow=none;html=1;rounded=0;entryX=0;entryY=0.5;entryDx=0;entryDy=0;" edge="1" parent="1" target="eJNdkGEpaUKo2zQjEefQ-65">
          <mxGeometry width="50" height="50" relative="1" as="geometry">
            <mxPoint x="1360" y="467.9" as="sourcePoint" />
            <mxPoint x="1370" y="467.9" as="targetPoint" />
          </mxGeometry>
        </mxCell>
        <mxCell id="eJNdkGEpaUKo2zQjEefQ-116" value="" style="endArrow=none;html=1;rounded=0;entryX=0;entryY=0.401;entryDx=0;entryDy=0;entryPerimeter=0;" edge="1" parent="1">
          <mxGeometry width="50" height="50" relative="1" as="geometry">
            <mxPoint x="1537" y="351.00000000000006" as="sourcePoint" />
            <mxPoint x="1547" y="351.00000000000006" as="targetPoint" />
          </mxGeometry>
        </mxCell>
        <mxCell id="eJNdkGEpaUKo2zQjEefQ-117" value="" style="endArrow=none;html=1;rounded=0;entryX=0;entryY=0.401;entryDx=0;entryDy=0;entryPerimeter=0;" edge="1" parent="1">
          <mxGeometry width="50" height="50" relative="1" as="geometry">
            <mxPoint x="1540" y="406" as="sourcePoint" />
            <mxPoint x="1547" y="405.88000000000005" as="targetPoint" />
          </mxGeometry>
        </mxCell>
        <mxCell id="eJNdkGEpaUKo2zQjEefQ-118" value="" style="endArrow=none;html=1;rounded=0;entryX=0;entryY=0.401;entryDx=0;entryDy=0;entryPerimeter=0;" edge="1" parent="1">
          <mxGeometry width="50" height="50" relative="1" as="geometry">
            <mxPoint x="1537" y="460.99999999999994" as="sourcePoint" />
            <mxPoint x="1547" y="460.99999999999994" as="targetPoint" />
          </mxGeometry>
        </mxCell>
        <mxCell id="eJNdkGEpaUKo2zQjEefQ-119" value="" style="endArrow=none;html=1;rounded=0;entryX=-0.001;entryY=0.409;entryDx=0;entryDy=0;entryPerimeter=0;" edge="1" parent="1" target="eJNdkGEpaUKo2zQjEefQ-70">
          <mxGeometry width="50" height="50" relative="1" as="geometry">
            <mxPoint x="1710" y="338" as="sourcePoint" />
            <mxPoint x="1729" y="336.87" as="targetPoint" />
          </mxGeometry>
        </mxCell>
        <mxCell id="eJNdkGEpaUKo2zQjEefQ-120" value="" style="endArrow=none;html=1;rounded=0;entryX=0;entryY=0.528;entryDx=0;entryDy=0;entryPerimeter=0;" edge="1" parent="1" target="eJNdkGEpaUKo2zQjEefQ-71">
          <mxGeometry width="50" height="50" relative="1" as="geometry">
            <mxPoint x="1710" y="397" as="sourcePoint" />
            <mxPoint x="1730" y="422.87" as="targetPoint" />
          </mxGeometry>
        </mxCell>
        <mxCell id="eJNdkGEpaUKo2zQjEefQ-121" value="" style="endArrow=none;html=1;rounded=0;entryX=0.01;entryY=0.667;entryDx=0;entryDy=0;entryPerimeter=0;" edge="1" parent="1">
          <mxGeometry width="50" height="50" relative="1" as="geometry">
            <mxPoint x="1710" y="501" as="sourcePoint" />
            <mxPoint x="1730" y="500.87" as="targetPoint" />
          </mxGeometry>
        </mxCell>
        <mxCell id="eJNdkGEpaUKo2zQjEefQ-122" value="" style="endArrow=none;html=1;rounded=0;entryX=0.01;entryY=0.667;entryDx=0;entryDy=0;entryPerimeter=0;" edge="1" parent="1">
          <mxGeometry width="50" height="50" relative="1" as="geometry">
            <mxPoint x="1710" y="451.13" as="sourcePoint" />
            <mxPoint x="1730" y="451" as="targetPoint" />
          </mxGeometry>
        </mxCell>
        <mxCell id="eJNdkGEpaUKo2zQjEefQ-123" value="" style="endArrow=none;html=1;rounded=0;entryX=-0.001;entryY=0.409;entryDx=0;entryDy=0;entryPerimeter=0;" edge="1" parent="1">
          <mxGeometry width="50" height="50" relative="1" as="geometry">
            <mxPoint x="2020" y="246.8" as="sourcePoint" />
            <mxPoint x="2040" y="245.8" as="targetPoint" />
          </mxGeometry>
        </mxCell>
        <mxCell id="eJNdkGEpaUKo2zQjEefQ-124" value="" style="endArrow=none;html=1;rounded=0;entryX=0;entryY=0.528;entryDx=0;entryDy=0;entryPerimeter=0;" edge="1" parent="1">
          <mxGeometry width="50" height="50" relative="1" as="geometry">
            <mxPoint x="2020" y="305.8" as="sourcePoint" />
            <mxPoint x="2040" y="305.8" as="targetPoint" />
          </mxGeometry>
        </mxCell>
        <mxCell id="eJNdkGEpaUKo2zQjEefQ-125" value="" style="endArrow=none;html=1;rounded=0;entryX=0.01;entryY=0.667;entryDx=0;entryDy=0;entryPerimeter=0;" edge="1" parent="1">
          <mxGeometry width="50" height="50" relative="1" as="geometry">
            <mxPoint x="2020" y="409.8" as="sourcePoint" />
            <mxPoint x="2040" y="409.67" as="targetPoint" />
          </mxGeometry>
        </mxCell>
        <mxCell id="eJNdkGEpaUKo2zQjEefQ-126" value="" style="endArrow=none;html=1;rounded=0;entryX=0.01;entryY=0.667;entryDx=0;entryDy=0;entryPerimeter=0;" edge="1" parent="1">
          <mxGeometry width="50" height="50" relative="1" as="geometry">
            <mxPoint x="2020" y="359.93" as="sourcePoint" />
            <mxPoint x="2040" y="359.8" as="targetPoint" />
          </mxGeometry>
        </mxCell>
        <mxCell id="eJNdkGEpaUKo2zQjEefQ-127" value="" style="endArrow=none;html=1;rounded=0;entryX=0.01;entryY=0.667;entryDx=0;entryDy=0;entryPerimeter=0;" edge="1" parent="1">
          <mxGeometry width="50" height="50" relative="1" as="geometry">
            <mxPoint x="2020" y="484.96000000000004" as="sourcePoint" />
            <mxPoint x="2040" y="484.83000000000004" as="targetPoint" />
          </mxGeometry>
        </mxCell>
        <mxCell id="eJNdkGEpaUKo2zQjEefQ-128" value="" style="endArrow=none;html=1;rounded=0;exitX=-0.001;exitY=0.547;exitDx=0;exitDy=0;exitPerimeter=0;" edge="1" parent="1" source="eJNdkGEpaUKo2zQjEefQ-82">
          <mxGeometry width="50" height="50" relative="1" as="geometry">
            <mxPoint x="2200" y="310" as="sourcePoint" />
            <mxPoint x="2250" y="260" as="targetPoint" />
          </mxGeometry>
        </mxCell>
        <mxCell id="eJNdkGEpaUKo2zQjEefQ-129" value="" style="endArrow=none;html=1;rounded=0;" edge="1" parent="1">
          <mxGeometry width="50" height="50" relative="1" as="geometry">
            <mxPoint x="2250" y="310" as="sourcePoint" />
            <mxPoint x="2270" y="310" as="targetPoint" />
          </mxGeometry>
        </mxCell>
        <mxCell id="eJNdkGEpaUKo2zQjEefQ-130" value="" style="endArrow=none;html=1;rounded=0;entryX=0.5;entryY=1;entryDx=0;entryDy=0;" edge="1" parent="1" target="eJNdkGEpaUKo2zQjEefQ-1">
          <mxGeometry width="50" height="50" relative="1" as="geometry">
            <mxPoint x="1241" y="120" as="sourcePoint" />
            <mxPoint x="1020" y="200" as="targetPoint" />
          </mxGeometry>
        </mxCell>
        <mxCell id="eJNdkGEpaUKo2zQjEefQ-131" value="" style="endArrow=none;html=1;rounded=0;entryX=0.5;entryY=0;entryDx=0;entryDy=0;" edge="1" parent="1" target="eJNdkGEpaUKo2zQjEefQ-15">
          <mxGeometry width="50" height="50" relative="1" as="geometry">
            <mxPoint x="892" y="120" as="sourcePoint" />
            <mxPoint x="1120" y="290" as="targetPoint" />
          </mxGeometry>
        </mxCell>
        <mxCell id="eJNdkGEpaUKo2zQjEefQ-132" value="" style="endArrow=none;html=1;rounded=0;entryX=0.547;entryY=-0.002;entryDx=0;entryDy=0;entryPerimeter=0;" edge="1" parent="1" target="eJNdkGEpaUKo2zQjEefQ-60">
          <mxGeometry width="50" height="50" relative="1" as="geometry">
            <mxPoint x="1600" y="120" as="sourcePoint" />
            <mxPoint x="1750" y="330" as="targetPoint" />
          </mxGeometry>
        </mxCell>
        <mxCell id="eJNdkGEpaUKo2zQjEefQ-133" value="" style="endArrow=none;html=1;rounded=0;exitX=0.544;exitY=-0.025;exitDx=0;exitDy=0;exitPerimeter=0;" edge="1" parent="1" source="eJNdkGEpaUKo2zQjEefQ-75">
          <mxGeometry width="50" height="50" relative="1" as="geometry">
            <mxPoint x="2100" y="310" as="sourcePoint" />
            <mxPoint x="2080" y="120" as="targetPoint" />
          </mxGeometry>
        </mxCell>
        <mxCell id="eJNdkGEpaUKo2zQjEefQ-134" value="" style="endArrow=none;html=1;rounded=0;exitX=0.542;exitY=0.012;exitDx=0;exitDy=0;exitPerimeter=0;" edge="1" parent="1" source="eJNdkGEpaUKo2zQjEefQ-81">
          <mxGeometry width="50" height="50" relative="1" as="geometry">
            <mxPoint x="2110" y="400" as="sourcePoint" />
            <mxPoint x="2310" y="120" as="targetPoint" />
          </mxGeometry>
        </mxCell>
        <mxCell id="eJNdkGEpaUKo2zQjEefQ-135" value="" style="endArrow=none;html=1;rounded=0;" edge="1" parent="1">
          <mxGeometry width="50" height="50" relative="1" as="geometry">
            <mxPoint x="-10" y="240" as="sourcePoint" />
            <mxPoint x="400" y="240" as="targetPoint" />
          </mxGeometry>
        </mxCell>
        <mxCell id="eJNdkGEpaUKo2zQjEefQ-136" value="" style="endArrow=none;html=1;rounded=0;" edge="1" parent="1">
          <mxGeometry width="50" height="50" relative="1" as="geometry">
            <mxPoint x="450" y="240" as="sourcePoint" />
            <mxPoint x="1320" y="240" as="targetPoint" />
          </mxGeometry>
        </mxCell>
        <mxCell id="eJNdkGEpaUKo2zQjEefQ-137" value="" style="endArrow=none;html=1;rounded=0;" edge="1" parent="1">
          <mxGeometry width="50" height="50" relative="1" as="geometry">
            <mxPoint x="1350" y="240" as="sourcePoint" />
            <mxPoint x="1840" y="240" as="targetPoint" />
          </mxGeometry>
        </mxCell>
        <mxCell id="eJNdkGEpaUKo2zQjEefQ-138" value="" style="endArrow=none;html=1;rounded=0;entryX=0.465;entryY=1.018;entryDx=0;entryDy=0;entryPerimeter=0;" edge="1" parent="1" target="eJNdkGEpaUKo2zQjEefQ-2">
          <mxGeometry width="50" height="50" relative="1" as="geometry">
            <mxPoint x="170" y="240" as="sourcePoint" />
            <mxPoint x="390" y="250" as="targetPoint" />
          </mxGeometry>
        </mxCell>
        <mxCell id="eJNdkGEpaUKo2zQjEefQ-139" value="" style="endArrow=none;html=1;rounded=0;entryX=0.5;entryY=1;entryDx=0;entryDy=0;" edge="1" parent="1" target="eJNdkGEpaUKo2zQjEefQ-15">
          <mxGeometry width="50" height="50" relative="1" as="geometry">
            <mxPoint x="892" y="240" as="sourcePoint" />
            <mxPoint x="830" y="290" as="targetPoint" />
          </mxGeometry>
        </mxCell>
        <mxCell id="eJNdkGEpaUKo2zQjEefQ-140" value="" style="endArrow=none;html=1;rounded=0;entryX=0.544;entryY=1.009;entryDx=0;entryDy=0;entryPerimeter=0;" edge="1" parent="1" target="eJNdkGEpaUKo2zQjEefQ-60">
          <mxGeometry width="50" height="50" relative="1" as="geometry">
            <mxPoint x="1600" y="240" as="sourcePoint" />
            <mxPoint x="1640" y="260" as="targetPoint" />
          </mxGeometry>
        </mxCell>
        <mxCell id="eJNdkGEpaUKo2zQjEefQ-141" value="" style="endArrow=none;html=1;rounded=0;exitX=0.5;exitY=0;exitDx=0;exitDy=0;" edge="1" parent="1" source="eJNdkGEpaUKo2zQjEefQ-3">
          <mxGeometry width="50" height="50" relative="1" as="geometry">
            <mxPoint x="210" y="320" as="sourcePoint" />
            <mxPoint x="50" y="240" as="targetPoint" />
          </mxGeometry>
        </mxCell>
        <mxCell id="eJNdkGEpaUKo2zQjEefQ-142" value="" style="endArrow=none;html=1;rounded=0;exitX=0.5;exitY=0;exitDx=0;exitDy=0;" edge="1" parent="1" source="eJNdkGEpaUKo2zQjEefQ-7">
          <mxGeometry width="50" height="50" relative="1" as="geometry">
            <mxPoint x="210" y="320" as="sourcePoint" />
            <mxPoint x="190" y="240" as="targetPoint" />
          </mxGeometry>
        </mxCell>
        <mxCell id="eJNdkGEpaUKo2zQjEefQ-143" value="" style="endArrow=none;html=1;rounded=0;" edge="1" parent="1">
          <mxGeometry width="50" height="50" relative="1" as="geometry">
            <mxPoint x="330" y="274" as="sourcePoint" />
            <mxPoint x="330" y="240" as="targetPoint" />
          </mxGeometry>
        </mxCell>
        <mxCell id="eJNdkGEpaUKo2zQjEefQ-144" value="" style="endArrow=none;html=1;rounded=0;exitX=0.5;exitY=0;exitDx=0;exitDy=0;" edge="1" parent="1" source="eJNdkGEpaUKo2zQjEefQ-35">
          <mxGeometry width="50" height="50" relative="1" as="geometry">
            <mxPoint x="590" y="360" as="sourcePoint" />
            <mxPoint x="510" y="240" as="targetPoint" />
          </mxGeometry>
        </mxCell>
        <mxCell id="eJNdkGEpaUKo2zQjEefQ-145" value="" style="endArrow=none;html=1;rounded=0;exitX=0.5;exitY=0;exitDx=0;exitDy=0;" edge="1" parent="1" source="eJNdkGEpaUKo2zQjEefQ-31">
          <mxGeometry width="50" height="50" relative="1" as="geometry">
            <mxPoint x="710" y="380" as="sourcePoint" />
            <mxPoint x="660" y="240" as="targetPoint" />
          </mxGeometry>
        </mxCell>
        <mxCell id="eJNdkGEpaUKo2zQjEefQ-146" value="" style="endArrow=none;html=1;rounded=0;exitX=0.422;exitY=-0.036;exitDx=0;exitDy=0;exitPerimeter=0;" edge="1" parent="1" source="eJNdkGEpaUKo2zQjEefQ-42">
          <mxGeometry width="50" height="50" relative="1" as="geometry">
            <mxPoint x="860" y="350" as="sourcePoint" />
            <mxPoint x="830" y="240" as="targetPoint" />
          </mxGeometry>
        </mxCell>
        <mxCell id="eJNdkGEpaUKo2zQjEefQ-147" value="" style="endArrow=none;html=1;rounded=0;exitX=0.491;exitY=-0.081;exitDx=0;exitDy=0;exitPerimeter=0;" edge="1" parent="1" source="eJNdkGEpaUKo2zQjEefQ-52">
          <mxGeometry width="50" height="50" relative="1" as="geometry">
            <mxPoint x="1070" y="320" as="sourcePoint" />
            <mxPoint x="1030" y="240" as="targetPoint" />
          </mxGeometry>
        </mxCell>
        <mxCell id="eJNdkGEpaUKo2zQjEefQ-148" value="" style="endArrow=none;html=1;rounded=0;exitX=0.417;exitY=-0.046;exitDx=0;exitDy=0;exitPerimeter=0;" edge="1" parent="1" source="eJNdkGEpaUKo2zQjEefQ-56">
          <mxGeometry width="50" height="50" relative="1" as="geometry">
            <mxPoint x="1190" y="340" as="sourcePoint" />
            <mxPoint x="1210" y="240" as="targetPoint" />
          </mxGeometry>
        </mxCell>
        <mxCell id="eJNdkGEpaUKo2zQjEefQ-149" value="" style="endArrow=none;html=1;rounded=0;exitX=0.5;exitY=0;exitDx=0;exitDy=0;" edge="1" parent="1" source="eJNdkGEpaUKo2zQjEefQ-62">
          <mxGeometry width="50" height="50" relative="1" as="geometry">
            <mxPoint x="1409.78" y="281.00000000000006" as="sourcePoint" />
            <mxPoint x="1410.22" y="241" as="targetPoint" />
          </mxGeometry>
        </mxCell>
        <mxCell id="eJNdkGEpaUKo2zQjEefQ-150" value="" style="endArrow=none;html=1;rounded=0;exitX=0.443;exitY=-0.024;exitDx=0;exitDy=0;exitPerimeter=0;" edge="1" parent="1" source="eJNdkGEpaUKo2zQjEefQ-66">
          <mxGeometry width="50" height="50" relative="1" as="geometry">
            <mxPoint x="1630" y="350" as="sourcePoint" />
            <mxPoint x="1580" y="240" as="targetPoint" />
          </mxGeometry>
        </mxCell>
        <mxCell id="eJNdkGEpaUKo2zQjEefQ-151" value="" style="endArrow=none;html=1;rounded=0;exitX=0.5;exitY=0;exitDx=0;exitDy=0;" edge="1" parent="1" source="eJNdkGEpaUKo2zQjEefQ-69">
          <mxGeometry width="50" height="50" relative="1" as="geometry">
            <mxPoint x="1740" y="370" as="sourcePoint" />
            <mxPoint x="1760" y="240" as="targetPoint" />
          </mxGeometry>
        </mxCell>
        <mxCell id="eJNdkGEpaUKo2zQjEefQ-152" value="2.1.4 Migración a QA" style="rounded=0;whiteSpace=wrap;html=1;" vertex="1" parent="1">
          <mxGeometry x="470" y="495" width="120" height="40" as="geometry" />
        </mxCell>
        <mxCell id="eJNdkGEpaUKo2zQjEefQ-153" value="2.2.7 Migración a QA" style="rounded=0;whiteSpace=wrap;html=1;" vertex="1" parent="1">
          <mxGeometry x="620" y="720" width="120" height="40" as="geometry" />
        </mxCell>
        <mxCell id="eJNdkGEpaUKo2zQjEefQ-154" value="2.3.6 Migración a QA" style="rounded=0;whiteSpace=wrap;html=1;" vertex="1" parent="1">
          <mxGeometry x="810" y="660" width="120" height="40" as="geometry" />
        </mxCell>
        <mxCell id="eJNdkGEpaUKo2zQjEefQ-155" value="" style="endArrow=none;html=1;rounded=0;entryX=0.003;entryY=0.384;entryDx=0;entryDy=0;entryPerimeter=0;" edge="1" parent="1">
          <mxGeometry width="50" height="50" relative="1" as="geometry">
            <mxPoint x="790" y="679.8399999999999" as="sourcePoint" />
            <mxPoint x="810" y="680.04" as="targetPoint" />
          </mxGeometry>
        </mxCell>
        <mxCell id="eJNdkGEpaUKo2zQjEefQ-156" value="" style="endArrow=none;html=1;rounded=0;" edge="1" parent="1">
          <mxGeometry width="50" height="50" relative="1" as="geometry">
            <mxPoint x="610" y="739.8399999999999" as="sourcePoint" />
            <mxPoint x="620" y="740" as="targetPoint" />
          </mxGeometry>
        </mxCell>
        <mxCell id="eJNdkGEpaUKo2zQjEefQ-157" value="" style="endArrow=none;html=1;rounded=0;entryX=0;entryY=0.401;entryDx=0;entryDy=0;entryPerimeter=0;" edge="1" parent="1">
          <mxGeometry width="50" height="50" relative="1" as="geometry">
            <mxPoint x="460" y="514.87" as="sourcePoint" />
            <mxPoint x="470" y="514.87" as="targetPoint" />
          </mxGeometry>
        </mxCell>
        <mxCell id="eJNdkGEpaUKo2zQjEefQ-158" value="2.4.4 Migración a QA" style="rounded=0;whiteSpace=wrap;html=1;" vertex="1" parent="1">
          <mxGeometry x="990" y="560" width="120" height="40" as="geometry" />
        </mxCell>
        <mxCell id="eJNdkGEpaUKo2zQjEefQ-159" value="2.5.4 Migración a QA" style="rounded=0;whiteSpace=wrap;html=1;" vertex="1" parent="1">
          <mxGeometry x="1195" y="562" width="120" height="38" as="geometry" />
        </mxCell>
        <mxCell id="eJNdkGEpaUKo2zQjEefQ-160" value="" style="endArrow=none;html=1;rounded=0;entryX=0;entryY=0.401;entryDx=0;entryDy=0;entryPerimeter=0;" edge="1" parent="1">
          <mxGeometry width="50" height="50" relative="1" as="geometry">
            <mxPoint x="980" y="579.9099999999999" as="sourcePoint" />
            <mxPoint x="990" y="579.9099999999999" as="targetPoint" />
          </mxGeometry>
        </mxCell>
        <mxCell id="eJNdkGEpaUKo2zQjEefQ-161" value="" style="endArrow=none;html=1;rounded=0;entryX=0.01;entryY=0.667;entryDx=0;entryDy=0;entryPerimeter=0;" edge="1" parent="1">
          <mxGeometry width="50" height="50" relative="1" as="geometry">
            <mxPoint x="1168" y="580.9" as="sourcePoint" />
            <mxPoint x="1195" y="581.1" as="targetPoint" />
          </mxGeometry>
        </mxCell>
      </root>
    </mxGraphModel>
  </diagram>
</mxfile>
